<svg viewBox="0 0 224.41916 318.2733" xmlns="http://www.w3.org/2000/svg" xmlns:ev="http://www.w3.org/2001/xml-events" xmlns:xlink="http://www.w3.org/1999/xlink">
<g class="graph" id="graph-0">
<title>arvre</title>
<g id="a-graph-0">
<a title="arvre" xlink:title="arvre">
<rect fill="transparent" height="318.2733" stroke="transparent" width="224.41916" x="0" y="0"/>
</a>
</g>
</g>
<defs>
<filter height="300%" id="red-glow" width="300%" x="-100%" y="-100%">
<feFlood flood-color="red" flood-opacity="0.5" in="SourceGraphic"/>
<feComposite in2="SourceGraphic" operator="in"/>
<feGaussianBlur stdDeviation="5"/>
<feComponentTransfer result="glow1">
<feFuncA intercept="0" slope="4" type="linear"/>
</feComponentTransfer>
<feMerge>
<feMergeNode in="glow1"/>
<feMergeNode in="SourceGraphic"/>
</feMerge>
</filter>
<filter height="300%" id="green-glow" width="300%" x="-100%" y="-100%">
<feFlood flood-color="green" flood-opacity="0.5" in="SourceGraphic"/>
<feComposite in2="SourceGraphic" operator="in"/>
<feGaussianBlur stdDeviation="5"/>
<feComponentTransfer result="glow1">
<feFuncA intercept="0" slope="4" type="linear"/>
</feComponentTransfer>
<feMerge>
<feMergeNode in="glow1"/>
<feMergeNode in="SourceGraphic"/>
</feMerge>
</filter>
<filter height="300%" id="orange-glow" width="300%" x="-100%" y="-100%">
<feFlood flood-color="orange" flood-opacity="0.5" in="SourceGraphic"/>
<feComposite in2="SourceGraphic" operator="in"/>
<feGaussianBlur stdDeviation="5"/>
<feComponentTransfer result="glow1">
<feFuncA intercept="0" slope="4" type="linear"/>
</feComponentTransfer>
<feMerge>
<feMergeNode in="glow1"/>
<feMergeNode in="SourceGraphic"/>
</feMerge>
</filter>
</defs>
<g class="edge" id="edge-0">
<title>A -&gt; B</title>
<g id="a-edge-0">
<a title="A -&gt; B" xlink:title="A -&gt; B">
<path d="M119.897964,43.769188 C108.767456,53.44346,86.50644,63.11773,86.50644,72.792 C86.50644,80.958664,86.50644,89.125336,86.50644,97.292" fill="none" stroke="black" stroke-width="1"/>
<polygon fill="black" points="86.50644,97.292 90.50645,87.292 82.50645,87.292 86.50644,97.292" stroke="black" stroke-width="1"/>
</a>
</g>
</g>
<g class="edge" id="edge-1">
<title>A -&gt; C</title>
<g id="a-edge-1">
<a title="A -&gt; C" xlink:title="A -&gt; C">
<path d="M154.12196,43.769188 C165.25247,53.44346,187.51349,63.11773,187.51349,72.792 C187.51349,80.98388,187.51349,89.17575,187.51349,97.36763" fill="none" stroke="black" stroke-width="1"/>
<polygon fill="black" points="187.51349,97.36763 191.51349,87.36763 183.51349,87.36763 187.51349,97.36763" stroke="black" stroke-width="1"/>
</a>
</g>
</g>
<g class="edge" id="edge-2">
<title>B -&gt; D</title>
<g id="a-edge-2">
<a title="B -&gt; D" xlink:title="B -&gt; D">
<path d="M69.80852,130.0419 C58.53468,139.64398,35.987,149.24605,35.987,158.84813 C35.987,167.0148,35.987,175.18146,35.987,183.34813" fill="none" stroke="black" stroke-width="1"/>
<polygon fill="black" points="35.987,183.34813 39.987,173.34813 31.987,173.34813 35.987,183.34813" stroke="black" stroke-width="1"/>
</a>
</g>
</g>
<g class="edge" id="edge-3">
<title>B -&gt; E</title>
<g id="a-edge-3">
<a title="B -&gt; E" xlink:title="B -&gt; E">
<path d="M103.20436,130.04192 C114.478195,139.64398,137.02586,149.24606,137.02586,158.84813 C137.02586,167.2584,137.02586,175.6687,137.02586,184.07898" fill="none" stroke="black" stroke-width="1"/>
<polygon fill="black" points="137.02586,184.07898 141.02585,174.07898 133.02585,174.07898 137.02586,184.07898" stroke="black" stroke-width="1"/>
</a>
</g>
</g>
<g class="edge" id="edge-4">
<title>E -&gt; F</title>
<g id="a-edge-4">
<a title="E -&gt; F" xlink:title="E -&gt; F">
<path d="M120.76517,216.19324 C109.37965,225.98514,86.6086,235.77704,86.6086,245.56894 C86.6086,254.02959,86.6086,262.49023,86.6086,270.9509" fill="none" stroke="black" stroke-width="1"/>
<polygon fill="black" points="86.6086,270.9509 90.60859,260.9509 82.60859,260.9509 86.6086,270.9509" stroke="black" stroke-width="1"/>
</a>
</g>
</g>
<g class="edge" id="edge-5">
<title>E -&gt; G</title>
<g id="a-edge-5">
<a title="E -&gt; G" xlink:title="E -&gt; G">
<path d="M153.28656,216.19324 C164.67209,225.98514,187.44315,235.77704,187.44315,245.56894 C187.44315,253.73561,187.44315,261.90228,187.44315,270.06894" fill="none" stroke="black" stroke-width="1"/>
<polygon fill="black" points="187.44315,270.06894 191.44315,260.06894 183.44315,260.06894 187.44315,270.06894" stroke="black" stroke-width="1"/>
</a>
</g>
</g>
<g class="node" id="node-0">
<title>A</title>
<g id="a-node-0">
<a title="A" xlink:title="A">
<rect fill="#FF0000" height="37.792" stroke="#FF0000" stroke-width="1" width="34.224" x="119.897964" y="10"/>
<path d="M140.61671,35.104 L139.24171,31.57275 L134.71046,31.57275 L133.35109,35.104 L131.89796,35.104 L136.36671,23.63525 L137.66359,23.63525 L142.10109,35.104 ZM137.52296,26.838375 Q137.47609,26.69775,137.36671,26.369625 Q137.25734,26.025875,137.14796,25.6665 Q137.05421,25.307125,136.99171,25.119625 Q136.91359,25.44775,136.81984,25.775875 Q136.72609,26.088375,136.63234,26.369625 Q136.55421,26.63525,136.49171,26.838375 L135.19484,30.2915 L138.80421,30.2915 Z" fill="black"/>
</a>
</g>
</g>
<g class="node" id="node-1">
<title>B</title>
<g id="a-node-1">
<a title="B" xlink:title="B">
<ellipse cx="86.50644" cy="115.82007" fill="white" rx="25.551884" ry="18.028067" stroke="black" stroke-width="1"/>
<path d="M86.11894,110.6062 Q88.25957,110.6062,89.35332,111.246826 Q90.46269,111.871826,90.46269,113.434326 Q90.46269,114.1062,90.21269,114.63745 Q89.96269,115.153076,89.47832,115.496826 Q88.99394,115.840576,88.27519,115.965576 L88.27519,116.0437 Q89.00957,116.153076,89.58769,116.465576 Q90.16582,116.76245,90.49394,117.32495 Q90.83769,117.88745,90.83769,118.778076 Q90.83769,119.82495,90.35332,120.559326 Q89.88457,121.278076,88.99394,121.653076 Q88.10332,122.028076,86.86894,122.028076 L82.85332,122.028076 L82.85332,110.6062 ZM86.41582,115.465576 Q87.88457,115.465576,88.41582,114.996826 Q88.96269,114.528076,88.96269,113.590576 Q88.96269,112.653076,88.30644,112.246826 Q87.65019,111.840576,86.18144,111.840576 L84.29082,111.840576 L84.29082,115.465576 ZM84.29082,116.6687 L84.29082,120.809326 L86.60332,120.809326 Q88.11894,120.809326,88.71269,120.215576 Q89.30644,119.621826,89.30644,118.6687 Q89.30644,118.059326,89.04082,117.621826 Q88.77519,117.1687,88.15019,116.9187 Q87.54082,116.6687,86.49394,116.6687 Z" fill="black"/>
</a>
</g>
</g>
<g class="node" id="node-2">
<title>C</title>
<g id="a-node-2">
<a title="C" xlink:title="C">
<ellipse cx="187.51349" cy="115.82007" fill="white" rx="25.455175" ry="17.952442" stroke="black" stroke-width="1"/>
<path d="M188.91061,111.715576 Q187.98874,111.715576,187.25436,112.028076 Q186.51999,112.32495,186.00436,112.934326 Q185.50436,113.528076,185.22311,114.38745 Q184.95749,115.246826,184.95749,116.309326 Q184.95749,117.7312,185.39499,118.778076 Q185.83249,119.809326,186.70749,120.371826 Q187.58249,120.9187,188.89499,120.9187 Q189.64499,120.9187,190.31686,120.7937 Q190.98874,120.6687,191.62936,120.4812 L191.62936,121.7312 Q190.98874,121.965576,190.30124,122.07495 Q189.62936,122.184326,188.67624,122.184326 Q186.94186,122.184326,185.76999,121.465576 Q184.59811,120.746826,184.00436,119.4187 Q183.42624,118.090576,183.42624,116.2937 Q183.42624,114.996826,183.78561,113.934326 Q184.16061,112.8562,184.84811,112.07495 Q185.55124,111.2937,186.56686,110.871826 Q187.59811,110.44995,188.92624,110.44995 Q189.80124,110.44995,190.61374,110.621826 Q191.42624,110.7937,192.06686,111.121826 L191.50436,112.32495 Q190.97311,112.090576,190.31686,111.903076 Q189.67624,111.715576,188.91061,111.715576 Z" fill="black"/>
</a>
</g>
</g>
<g class="node" id="node-3">
<title>D</title>
<g id="a-node-3">
<a title="D" xlink:title="D">
<ellipse cx="35.987" cy="202.20854" fill="white" rx="25.987005" ry="18.360409" stroke="black" stroke-width="1"/>
<path d="M40.850124,202.58842 Q40.850124,204.5103,40.131374,205.80717 Q39.42825,207.10405,38.100124,207.7603 Q36.772,208.41655,34.881374,208.41655 L31.693874,208.41655 L31.693874,196.99467 L35.225124,196.99467 Q36.943874,196.99467,38.2095,197.6353 Q39.475124,198.27592,40.162624,199.52592 Q40.850124,200.7603,40.850124,202.58842 ZM39.3345,202.6353 Q39.3345,201.11967,38.818874,200.15092 Q38.318874,199.16655,37.350124,198.6978 Q36.381374,198.22905,35.006374,198.22905 L33.131374,198.22905 L33.131374,207.18217 L34.693874,207.18217 Q37.006374,207.18217,38.162624,206.04155 Q39.3345,204.90092,39.3345,202.6353 Z" fill="black"/>
</a>
</g>
</g>
<g class="node" id="node-4">
<title>E</title>
<g id="a-node-4">
<a title="E" xlink:title="E">
<ellipse cx="137.02586" cy="202.20854" fill="white" rx="25.051857" ry="17.62956" stroke="black" stroke-width="1"/>
<path d="M140.51537,208.41655 L134.12474,208.41655 L134.12474,196.99467 L140.51537,196.99467 L140.51537,198.2603 L135.56224,198.2603 L135.56224,201.8228 L140.21849,201.8228 L140.21849,203.0728 L135.56224,203.0728 L135.56224,207.15092 L140.51537,207.15092 Z" fill="black"/>
</a>
</g>
</g>
<g class="node" id="node-5">
<title>F</title>
<g id="a-node-5">
<a title="F" xlink:title="F">
<ellipse cx="86.6086" cy="288.9211" fill="white" rx="24.858519" ry="17.47021" stroke="black" stroke-width="1"/>
<path d="M85.44097,295.12912 L84.00347,295.12912 L84.00347,283.70724 L90.3941,283.70724 L90.3941,284.97287 L85.44097,284.97287 L85.44097,289.01974 L90.0816,289.01974 L90.0816,290.28537 L85.44097,290.28537 Z" fill="black"/>
</a>
</g>
</g>
<g class="node" id="node-6">
<title>G</title>
<g id="a-node-6">
<a title="G" xlink:title="G">
<ellipse cx="187.44315" cy="288.9211" fill="white" rx="25.976025" ry="18.352175" stroke="black" stroke-width="1"/>
<path d="M188.13477,289.09787 L192.08789,289.09787 L192.08789,294.69162 Q191.15039,295.00412,190.19727,295.14474 Q189.25977,295.28537,188.07227,295.28537 Q186.29102,295.28537,185.07227,294.58224 Q183.85352,293.8635,183.21289,292.551 Q182.58789,291.22287,182.58789,289.41037 Q182.58789,287.62912,183.29102,286.31662 Q184.00977,285.00412,185.32227,284.28537 Q186.65039,283.551,188.50977,283.551 Q189.47852,283.551,190.32227,283.72287 Q191.18164,283.89474,191.91602,284.22287 L191.38477,285.47287 Q190.77539,285.19162,190.00977,285.00412 Q189.24414,284.81662,188.43164,284.81662 Q187.07227,284.81662,186.08789,285.37912 Q185.11914,285.926,184.60352,286.95724 Q184.10352,287.9885,184.10352,289.41037 Q184.10352,290.76974,184.54102,291.83224 Q184.97852,292.87912,185.91602,293.45724 Q186.86914,294.03537,188.40039,294.03537 Q189.15039,294.03537,189.68164,293.95724 Q190.21289,293.87912,190.65039,293.76974 L190.65039,290.37912 L188.13477,290.37912 Z" fill="black"/>
</a>
</g>
</g>
</svg>