<svg viewBox="0 0 599.6195 308.1604" xmlns="http://www.w3.org/2000/svg" xmlns:ev="http://www.w3.org/2001/xml-events" xmlns:xlink="http://www.w3.org/1999/xlink">
<g class="graph" id="graph-0">
<title>Classe</title>
<g id="a-graph-0">
<a title="Classe" xlink:title="Classe">
<rect fill="transparent" height="308.1604" stroke="transparent" width="599.6195" x="0" y="0"/>
</a>
</g>
</g>
<defs>
<filter height="300%" id="red-glow" width="300%" x="-100%" y="-100%">
<feFlood flood-color="red" flood-opacity="0.5" in="SourceGraphic"/>
<feComposite in2="SourceGraphic" operator="in"/>
<feGaussianBlur stdDeviation="5"/>
<feComponentTransfer result="glow1">
<feFuncA intercept="0" slope="4" type="linear"/>
</feComponentTransfer>
<feMerge>
<feMergeNode in="glow1"/>
<feMergeNode in="SourceGraphic"/>
</feMerge>
</filter>
<filter height="300%" id="green-glow" width="300%" x="-100%" y="-100%">
<feFlood flood-color="green" flood-opacity="0.5" in="SourceGraphic"/>
<feComposite in2="SourceGraphic" operator="in"/>
<feGaussianBlur stdDeviation="5"/>
<feComponentTransfer result="glow1">
<feFuncA intercept="0" slope="4" type="linear"/>
</feComponentTransfer>
<feMerge>
<feMergeNode in="glow1"/>
<feMergeNode in="SourceGraphic"/>
</feMerge>
</filter>
<filter height="300%" id="orange-glow" width="300%" x="-100%" y="-100%">
<feFlood flood-color="orange" flood-opacity="0.5" in="SourceGraphic"/>
<feComposite in2="SourceGraphic" operator="in"/>
<feGaussianBlur stdDeviation="5"/>
<feComponentTransfer result="glow1">
<feFuncA intercept="0" slope="4" type="linear"/>
</feComponentTransfer>
<feMerge>
<feMergeNode in="glow1"/>
<feMergeNode in="SourceGraphic"/>
</feMerge>
</filter>
</defs>
<g class="cluster" id="cluster-0">
<title>cluster_primeira_fila</title>
<g id="a-cluster-0">
<a title="cluster_primeira_fila" xlink:title="cluster_primeira_fila">
<rect fill="white" height="142.23032" stroke="black" stroke-width="1" width="578.6195" x="10" y="10"/>
</a>
</g>
</g>
<g class="cluster" id="cluster-5">
<title>cluster_segunda_fila</title>
<g id="a-cluster-5">
<a title="cluster_segunda_fila" xlink:title="cluster_segunda_fila">
<rect fill="white" height="124.930084" stroke="black" stroke-width="1" width="275.32272" x="172.45149" y="172.23032"/>
</a>
</g>
</g>
<g class="edge" id="edge-0">
<title>Maicon -&gt; Vini</title>
<g id="a-edge-0">
<a title="Maicon -&gt; Vini" xlink:title="Maicon -&gt; Vini">
<path d="M121.811966,83.664375 C130.35847,82.42081,138.905,79.93367,147.4515,79.93367 C155.78484,79.93367,164.11818,79.93367,172.4515,79.93367 C184.66103,79.93367,196.87054,79.93367,209.08006,79.93367" fill="none" stroke="black" stroke-width="1"/>
<polygon fill="black" points="209.08006,79.93367 199.08006,75.93367 199.08006,83.93367 209.08006,79.93367" stroke="black" stroke-width="1"/>
</a>
</g>
</g>
<g class="edge" id="edge-1">
<title>Vini -&gt; Ana</title>
<g id="a-edge-1">
<a title="Vini -&gt; Ana" xlink:title="Vini -&gt; Ana">
<path d="M273.47345,75.32802 C285.91037,73.5299,298.34726,69.93367,310.78418,69.93367 C322.58823,69.93367,334.3923,69.93367,346.19635,69.93367" fill="none" stroke="black" stroke-width="1"/>
<polygon fill="black" points="346.19635,69.93367 336.19635,65.93367 336.19635,73.93367 346.19635,69.93367" stroke="black" stroke-width="1"/>
</a>
</g>
</g>
<g class="edge" id="edge-2">
<title>Ana -&gt; Luiz</title>
<g id="a-edge-2">
<a title="Ana -&gt; Luiz" xlink:title="Ana -&gt; Luiz">
<path d="M412.36206,69.93367 C424.1661,69.93367,435.97018,69.93367,447.77423,69.93367 C456.10757,69.93367,464.4409,69.93367,472.77423,69.93367 C480.94092,69.93367,489.10757,69.93367,497.27426,69.93367" fill="none" stroke="black" stroke-width="1"/>
<polygon fill="black" points="497.27426,69.93367 487.27426,65.93367 487.27426,73.93367 497.27426,69.93367" stroke="black" stroke-width="1"/>
</a>
</g>
</g>
<g class="edge" id="edge-3">
<title>Mateus -&gt; Gabriel</title>
<g id="a-edge-3">
<a title="Mateus -&gt; Gabriel" xlink:title="Mateus -&gt; Gabriel">
<path d="M286.28418,234.69536 C294.45084,234.69536,302.61752,234.69536,310.78418,234.69536 C318.95084,234.69536,327.11752,234.69536,335.28418,234.69536" fill="none" stroke="black" stroke-width="1"/>
<polygon fill="black" points="335.28418,234.69536 325.28418,230.69534 325.28418,238.69534 335.28418,234.69536" stroke="black" stroke-width="1"/>
</a>
</g>
</g>
<g class="edge" id="edge-4">
<title>Maicon -&gt; Mateus</title>
<g id="a-edge-4">
<a title="Maicon -&gt; Mateus" xlink:title="Maicon -&gt; Mateus">
<path d="M118.446365,102.156525 C128.11475,105.13168,137.78313,111.082,147.4515,111.082 C155.78484,111.082,164.11818,111.082,172.4515,111.082 C190.58444,111.082,208.71736,175.89597,226.8503,208.30295" fill="none" stroke="black" stroke-width="1"/>
<polygon fill="black" points="226.8503,208.30295 225.73813,197.5902 218.65683,201.31245 226.8503,208.30295" stroke="black" stroke-width="1"/>
</a>
</g>
</g>
<g class="edge" id="edge-5">
<title>Vini -&gt; Gabriel</title>
<g id="a-edge-5">
<a title="Vini -&gt; Gabriel" xlink:title="Vini -&gt; Gabriel">
<path d="M271.40012,89.03991 C284.52814,93.05394,297.65616,98.06416,310.78418,101.082 C329.11017,105.29474,347.43616,172.57909,365.76215,208.32764" fill="none" stroke="black" stroke-width="1"/>
<polygon fill="black" points="365.76215,208.32764 364.98096,197.58568 357.7882,201.08772 365.76215,208.32764" stroke="black" stroke-width="1"/>
</a>
</g>
</g>
<g class="node" id="node-1">
<title>Maicon</title>
<g id="a-node-1">
<a title="Maicon" xlink:title="Maicon">
<ellipse cx="78.72575" cy="89.93367" fill="white" rx="43.725754" ry="27.29665" stroke="black" stroke-width="1"/>
<path d="M57.8875,96.14168 L54.121876,86.12605 L54.059376,86.12605 Q54.090626,86.43855,54.10625,86.93855 Q54.1375,87.43855,54.153126,88.0323 Q54.16875,88.61043,54.16875,89.2198 L54.16875,96.14168 L52.840626,96.14168 L52.840626,84.7198 L54.98125,84.7198 L58.496876,94.07918 L58.559376,94.07918 L62.1375,84.7198 L64.24687,84.7198 L64.24687,96.14168 L62.825,96.14168 L62.825,89.11043 Q62.825,88.56355,62.840626,88.01668 Q62.85625,87.45418,62.8875,86.9698 Q62.91875,86.48543,62.934376,86.14168 L62.871876,86.14168 L59.075,96.14168 ZM70.41513,87.42293 Q71.97763,87.42293,72.72763,88.11043 Q73.493256,88.79793,73.493256,90.29793 L73.493256,96.14168 L72.462006,96.14168 L72.19638,94.92293 L72.118256,94.92293 Q71.75888,95.39168,71.368256,95.70418 Q70.97763,96.01668,70.462006,96.1573 Q69.962006,96.29793,69.243256,96.29793 Q68.47763,96.29793,67.85263,96.0323 Q67.243256,95.75105,66.88388,95.18855 Q66.54013,94.62605,66.54013,93.75105 Q66.54013,92.48543,67.54013,91.7823 Q68.555756,91.07918,70.649506,91.01668 L72.10263,90.9698 L72.10263,90.45418 Q72.10263,89.39168,71.63388,88.98543 Q71.180756,88.56355,70.337006,88.56355 Q69.66513,88.56355,69.055756,88.76668 Q68.44638,88.95418,67.91513,89.2198 L67.493256,88.1573 Q68.04013,87.86043,68.805756,87.64168 Q69.587006,87.42293,70.41513,87.42293 ZM70.837006,92.00105 Q69.22763,92.06355,68.60263,92.51668 Q67.993256,92.95418,67.993256,93.76668 Q67.993256,94.50105,68.430756,94.8448 Q68.88388,95.17293,69.57138,95.17293 Q70.649506,95.17293,71.368256,94.57918 Q72.087006,93.9698,72.087006,92.7198 L72.087006,91.95418 ZM77.54738,87.56355 L77.54738,96.14168 L76.14113,96.14168 L76.14113,87.56355 ZM76.85988,84.3448 Q77.188,84.3448,77.42238,84.56355 Q77.67238,84.7823,77.67238,85.25105 Q77.67238,85.68855,77.42238,85.92293 Q77.188,86.14168,76.85988,86.14168 Q76.51613,86.14168,76.26613,85.92293 Q76.03175,85.68855,76.03175,85.25105 Q76.03175,84.7823,76.26613,84.56355 Q76.51613,84.3448,76.85988,84.3448 ZM83.70663,96.29793 Q82.566,96.29793,81.67538,95.8448 Q80.80038,95.37605,80.28475,94.4073 Q79.78475,93.42293,79.78475,91.9073 Q79.78475,90.31355,80.316,89.32918 Q80.84725,88.32918,81.7535,87.87605 Q82.65975,87.4073,83.80038,87.4073 Q84.45663,87.4073,85.066,87.54793 Q85.67538,87.67293,86.066,87.87605 L85.6285,89.0323 Q85.2535,88.89168,84.73788,88.76668 Q84.22225,88.64168,83.76913,88.64168 Q82.90975,88.64168,82.34725,89.01668 Q81.78475,89.37605,81.51913,90.0948 Q81.2535,90.81355,81.2535,91.89168 Q81.2535,92.9073,81.51913,93.62605 Q81.78475,94.3448,82.33163,94.7198 Q82.8785,95.07918,83.691,95.07918 Q84.39413,95.07918,84.92538,94.93855 Q85.47225,94.79793,85.92538,94.5948 L85.92538,95.8448 Q85.48788,96.06355,84.95663,96.17293 Q84.441,96.29793,83.70663,96.29793 ZM95.40225,91.8448 Q95.40225,92.9073,95.121,93.73543 Q94.83975,94.56355,94.32413,95.14168 Q93.8085,95.70418,93.0585,96.00105 Q92.32413,96.29793,91.40225,96.29793 Q90.5585,96.29793,89.83975,96.00105 Q89.121,95.70418,88.58975,95.14168 Q88.0585,94.56355,87.76163,93.73543 Q87.46475,92.9073,87.46475,91.8448 Q87.46475,90.4073,87.94913,89.42293 Q88.4335,88.43855,89.32413,87.92293 Q90.21475,87.4073,91.44913,87.4073 Q92.621,87.4073,93.51163,87.92293 Q94.40225,88.43855,94.90225,89.42293 Q95.40225,90.4073,95.40225,91.8448 ZM88.9335,91.8448 Q88.9335,92.8448,89.1835,93.5948 Q89.44913,94.32918,90.01163,94.73543 Q90.57413,95.12605,91.4335,95.12605 Q92.3085,95.12605,92.85538,94.73543 Q93.41788,94.32918,93.6835,93.5948 Q93.94913,92.8448,93.94913,91.8448 Q93.94913,90.81355,93.66788,90.0948 Q93.40225,89.37605,92.85538,88.98543 Q92.3085,88.5948,91.41788,88.5948 Q90.10538,88.5948,89.51163,89.45418 Q88.9335,90.31355,88.9335,91.8448 ZM101.75413,87.4073 Q103.301,87.4073,104.08225,88.1573 Q104.8635,88.89168,104.8635,90.56355 L104.8635,96.14168 L103.47288,96.14168 L103.47288,90.6573 Q103.47288,89.61043,103.00413,89.11043 Q102.53538,88.5948,101.551,88.5948 Q100.12913,88.5948,99.58225,89.39168 Q99.03538,90.18855,99.03538,91.68855 L99.03538,96.14168 L97.62913,96.14168 L97.62913,87.56355 L98.76975,87.56355 L98.97288,88.73543 L99.051,88.73543 Q99.34788,88.2823,99.76975,87.98543 Q100.19163,87.68855,100.69163,87.54793 Q101.20725,87.4073,101.75413,87.4073 Z" fill="black"/>
</a>
</g>
</g>
<g class="node" id="node-2">
<title>Vini</title>
<g id="a-node-2">
<a title="Vini" xlink:title="Vini">
<ellipse cx="241.61784" cy="79.93367" fill="white" rx="32.03778" ry="22.11057" stroke="black" stroke-width="1"/>
<path d="M237.3396,74.7198 L233.26147,86.14168 L231.82397,86.14168 L227.74585,74.7198 L229.24585,74.7198 L231.82397,82.04793 Q231.99585,82.51668,232.12085,82.95418 Q232.26147,83.37605,232.35522,83.76668 Q232.4646,84.1573,232.54272,84.54793 Q232.62085,84.1573,232.73022,83.76668 Q232.8396,83.36043,232.9646,82.93855 Q233.10522,82.50105,233.26147,82.01668 L235.82397,74.7198 ZM240.11148,77.56355 L240.11148,86.14168 L238.70523,86.14168 L238.70523,77.56355 ZM239.42398,74.3448 Q239.7521,74.3448,239.98648,74.56355 Q240.23648,74.7823,240.23648,75.25105 Q240.23648,75.68855,239.98648,75.92293 Q239.7521,76.14168,239.42398,76.14168 Q239.08023,76.14168,238.83023,75.92293 Q238.59586,75.68855,238.59586,75.25105 Q238.59586,74.7823,238.83023,74.56355 Q239.08023,74.3448,239.42398,74.3448 ZM246.95824,77.4073 Q248.50511,77.4073,249.28636,78.1573 Q250.06761,78.89168,250.06761,80.56355 L250.06761,86.14168 L248.67699,86.14168 L248.67699,80.6573 Q248.67699,79.61043,248.20824,79.11043 Q247.73949,78.5948,246.75511,78.5948 Q245.33324,78.5948,244.78636,79.39168 Q244.23949,80.18855,244.23949,81.68855 L244.23949,86.14168 L242.83324,86.14168 L242.83324,77.56355 L243.97386,77.56355 L244.17699,78.73543 L244.25511,78.73543 Q244.55199,78.2823,244.97386,77.98543 Q245.39574,77.68855,245.89574,77.54793 Q246.41136,77.4073,246.95824,77.4073 ZM254.12749,77.56355 L254.12749,86.14168 L252.72124,86.14168 L252.72124,77.56355 ZM253.43999,74.3448 Q253.76811,74.3448,254.00249,74.56355 Q254.25249,74.7823,254.25249,75.25105 Q254.25249,75.68855,254.00249,75.92293 Q253.76811,76.14168,253.43999,76.14168 Q253.09624,76.14168,252.84624,75.92293 Q252.61186,75.68855,252.61186,75.25105 Q252.61186,74.7823,252.84624,74.56355 Q253.09624,74.3448,253.43999,74.3448 Z" fill="black"/>
</a>
</g>
</g>
<g class="node" id="node-3">
<title>Ana</title>
<g id="a-node-3">
<a title="Ana" xlink:title="Ana">
<ellipse cx="379.2792" cy="69.93367" fill="white" rx="32.58286" ry="22.39588" stroke="black" stroke-width="1"/>
<path d="M373.45395,76.14167 L372.07895,72.61042 L367.5477,72.61042 L366.18832,76.14167 L364.7352,76.14167 L369.20395,64.67292 L370.50082,64.67292 L374.93832,76.14167 ZM370.3602,67.876045 Q370.31332,67.73542,370.20395,67.407295 Q370.09457,67.063545,369.9852,66.70417 Q369.89145,66.344795,369.82895,66.157295 Q369.75082,66.48542,369.65707,66.813545 Q369.56332,67.126045,369.46957,67.407295 Q369.39145,67.67292,369.32895,67.876045 L368.03207,71.32917 L371.64145,71.32917 ZM380.44357,67.407295 Q381.99045,67.407295,382.7717,68.157295 Q383.55295,68.89167,383.55295,70.563545 L383.55295,76.14167 L382.16232,76.14167 L382.16232,70.657295 Q382.16232,69.61042,381.69357,69.11042 Q381.22482,68.594795,380.24045,68.594795 Q378.81857,68.594795,378.2717,69.39167 Q377.72482,70.188545,377.72482,71.688545 L377.72482,76.14167 L376.31857,76.14167 L376.31857,67.563545 L377.4592,67.563545 L377.66232,68.73542 L377.74045,68.73542 Q378.03732,68.282295,378.4592,67.98542 Q378.88107,67.688545,379.38107,67.54792 Q379.8967,67.407295,380.44357,67.407295 ZM389.45657,67.42292 Q391.01907,67.42292,391.76907,68.11042 Q392.5347,68.79792,392.5347,70.29792 L392.5347,76.14167 L391.50345,76.14167 L391.23782,74.92292 L391.1597,74.92292 Q390.80032,75.39167,390.4097,75.70417 Q390.01907,76.01667,389.50345,76.157295 Q389.00345,76.29792,388.2847,76.29792 Q387.51907,76.29792,386.89407,76.032295 Q386.2847,75.751045,385.92532,75.188545 Q385.58157,74.626045,385.58157,73.751045 Q385.58157,72.48542,386.58157,71.782295 Q387.5972,71.07917,389.69095,71.01667 L391.14407,70.969795 L391.14407,70.45417 Q391.14407,69.39167,390.67532,68.98542 Q390.2222,68.563545,389.37845,68.563545 Q388.70657,68.563545,388.0972,68.76667 Q387.48782,68.95417,386.95657,69.219795 L386.5347,68.157295 Q387.08157,67.86042,387.8472,67.64167 Q388.62845,67.42292,389.45657,67.42292 ZM389.87845,72.001045 Q388.26907,72.063545,387.64407,72.51667 Q387.0347,72.95417,387.0347,73.76667 Q387.0347,74.501045,387.4722,74.844795 Q387.92532,75.17292,388.61282,75.17292 Q389.69095,75.17292,390.4097,74.57917 Q391.12845,73.969795,391.12845,72.719795 L391.12845,71.95417 Z" fill="black"/>
</a>
</g>
</g>
<g class="node" id="node-4">
<title>Luiz</title>
<g id="a-node-4">
<a title="Luiz" xlink:title="Luiz">
<ellipse cx="530.6969" cy="69.93367" fill="white" rx="32.922646" ry="22.570694" stroke="black" stroke-width="1"/>
<path d="M517.2838,76.14167 L517.2838,64.719795 L518.7213,64.719795 L518.7213,74.86042 L523.7213,74.86042 L523.7213,76.14167 ZM532.65216,67.563545 L532.65216,76.14167 L531.4959,76.14167 L531.2928,75.001045 L531.2303,75.001045 Q530.94904,75.45417,530.51154,75.751045 Q530.08966,76.032295,529.57404,76.157295 Q529.0584,76.29792,528.51154,76.29792 Q527.4803,76.29792,526.77716,75.969795 Q526.08966,75.64167,525.7303,74.95417 Q525.38654,74.26667,525.38654,73.188545 L525.38654,67.563545 L526.8084,67.563545 L526.8084,73.07917 Q526.8084,74.11042,527.26154,74.626045 Q527.7303,75.126045,528.71466,75.126045 Q529.6678,75.126045,530.21466,74.76667 Q530.77716,74.407295,531.01154,73.719795 Q531.2459,73.01667,531.2459,72.032295 L531.2459,67.563545 ZM536.77454,67.563545 L536.77454,76.14167 L535.3683,76.14167 L535.3683,67.563545 ZM536.08704,64.344795 Q536.41516,64.344795,536.64954,64.563545 Q536.89954,64.782295,536.89954,65.251045 Q536.89954,65.688545,536.64954,65.92292 Q536.41516,66.14167,536.08704,66.14167 Q535.7433,66.14167,535.4933,65.92292 Q535.2589,65.688545,535.2589,65.251045 Q535.2589,64.782295,535.4933,64.563545 Q535.7433,64.344795,536.08704,64.344795 ZM545.0275,76.14167 L538.7619,76.14167 L538.7619,75.219795 L543.3713,68.657295 L539.0275,68.657295 L539.0275,67.563545 L544.91815,67.563545 L544.91815,68.626045 L540.3713,75.04792 L545.0275,75.04792 Z" fill="black"/>
</a>
</g>
</g>
<g class="node" id="node-6">
<title>Mateus</title>
<g id="a-node-6">
<a title="Mateus" xlink:title="Mateus">
<ellipse cx="241.61784" cy="234.69536" fill="white" rx="44.166336" ry="27.465038" stroke="black" stroke-width="1"/>
<path d="M220.2916,240.90337 L216.52597,230.88774 L216.46347,230.88774 Q216.49472,231.20024,216.51035,231.70024 Q216.5416,232.20024,216.55722,232.79399 Q216.57285,233.37212,216.57285,233.98149 L216.57285,240.90337 L215.24472,240.90337 L215.24472,229.48149 L217.38535,229.48149 L220.90097,238.84087 L220.96347,238.84087 L224.5416,229.48149 L226.65097,229.48149 L226.65097,240.90337 L225.2291,240.90337 L225.2291,233.87212 Q225.2291,233.32524,225.24472,232.77837 Q225.26035,232.21587,225.2916,231.73149 Q225.32285,231.24712,225.33847,230.90337 L225.27597,230.90337 L221.4791,240.90337 ZM232.81921,232.18462 Q234.38171,232.18462,235.13171,232.87212 Q235.89734,233.55962,235.89734,235.05962 L235.89734,240.90337 L234.86609,240.90337 L234.60046,239.68462 L234.52234,239.68462 Q234.16296,240.15337,233.77234,240.46587 Q233.38171,240.77837,232.86609,240.91899 Q232.36609,241.05962,231.64734,241.05962 Q230.88171,241.05962,230.25671,240.79399 Q229.64734,240.51274,229.28796,239.95024 Q228.94421,239.38774,228.94421,238.51274 Q228.94421,237.24712,229.94421,236.54399 Q230.95984,235.84087,233.05359,235.77837 L234.50671,235.73149 L234.50671,235.21587 Q234.50671,234.15337,234.03796,233.74712 Q233.58484,233.32524,232.74109,233.32524 Q232.06921,233.32524,231.45984,233.52837 Q230.85046,233.71587,230.31921,233.98149 L229.89734,232.91899 Q230.44421,232.62212,231.20984,232.40337 Q231.99109,232.18462,232.81921,232.18462 ZM233.24109,236.76274 Q231.63171,236.82524,231.00671,237.27837 Q230.39734,237.71587,230.39734,238.52837 Q230.39734,239.26274,230.83484,239.60649 Q231.28796,239.93462,231.97546,239.93462 Q233.05359,239.93462,233.77234,239.34087 Q234.49109,238.73149,234.49109,237.48149 L234.49109,236.71587 ZM241.40459,239.91899 Q241.73271,239.91899,242.06084,239.85649 Q242.40459,239.79399,242.60771,239.73149 L242.60771,240.80962 Q242.38896,240.91899,241.96709,240.98149 Q241.56084,241.05962,241.17021,241.05962 Q240.49834,241.05962,239.92021,240.84087 Q239.35771,240.60649,238.99834,240.02837 Q238.65459,239.45024,238.65459,238.40337 L238.65459,233.41899 L237.43584,233.41899 L237.43584,232.74712 L238.67021,232.18462 L239.23271,230.35649 L240.06084,230.35649 L240.06084,232.32524 L242.54521,232.32524 L242.54521,233.41899 L240.06084,233.41899 L240.06084,238.37212 Q240.06084,239.15337,240.43584,239.54399 Q240.81084,239.91899,241.40459,239.91899 ZM247.63371,232.16899 Q248.74309,232.16899,249.52434,232.65337 Q250.32121,233.12212,250.74309,233.99712 Q251.16496,234.87212,251.16496,236.04399 L251.16496,236.88774 L245.30559,236.88774 Q245.33684,238.34087,246.03996,239.10649 Q246.75871,239.85649,248.03996,239.85649 Q248.85246,239.85649,249.47746,239.71587 Q250.11809,239.55962,250.78996,239.27837 L250.78996,240.49712 Q250.13371,240.79399,249.49309,240.91899 Q248.85246,241.05962,247.97746,241.05962 Q246.75871,241.05962,245.82121,240.57524 Q244.88371,240.07524,244.35246,239.09087 Q243.83684,238.10649,243.83684,236.68462 Q243.83684,235.27837,244.30559,234.27837 Q244.78996,233.26274,245.63371,232.71587 Q246.49309,232.16899,247.63371,232.16899 ZM247.61809,233.32524 Q246.60246,233.32524,246.02434,233.98149 Q245.44621,234.62212,245.33684,235.76274 L249.69621,235.76274 Q249.69621,235.02837,249.46184,234.49712 Q249.24309,233.95024,248.78996,233.63774 Q248.33684,233.32524,247.61809,233.32524 ZM260.5171,232.32524 L260.5171,240.90337 L259.36084,240.90337 L259.1577,239.76274 L259.0952,239.76274 Q258.81396,240.21587,258.37646,240.51274 Q257.9546,240.79399,257.43896,240.91899 Q256.92334,241.05962,256.37646,241.05962 Q255.34521,241.05962,254.64209,240.73149 Q253.95459,240.40337,253.59521,239.71587 Q253.25146,239.02837,253.25146,237.95024 L253.25146,232.32524 L254.67334,232.32524 L254.67334,237.84087 Q254.67334,238.87212,255.12646,239.38774 Q255.59521,239.88774,256.5796,239.88774 Q257.5327,239.88774,258.0796,239.52837 Q258.6421,239.16899,258.87646,238.48149 Q259.11084,237.77837,259.11084,236.79399 L259.11084,232.32524 ZM268.81134,238.52837 Q268.81134,239.37212,268.38947,239.93462 Q267.98322,240.48149,267.2176,240.77837 Q266.45197,241.05962,265.38947,241.05962 Q264.49884,241.05962,263.8426,240.91899 Q263.20197,240.77837,262.70197,240.51274 L262.70197,239.24712 Q263.2176,239.49712,263.93634,239.71587 Q264.67072,239.93462,265.42072,239.93462 Q266.49884,239.93462,266.9676,239.59087 Q267.45197,239.24712,267.45197,238.66899 Q267.45197,238.34087,267.2801,238.09087 Q267.10822,237.82524,266.63947,237.57524 Q266.18634,237.32524,265.3426,236.99712 Q264.51447,236.68462,263.92072,236.37212 Q263.32697,236.04399,262.99884,235.59087 Q262.68634,235.13774,262.68634,234.43462 Q262.68634,233.35649,263.57697,232.76274 Q264.4676,232.16899,265.9051,232.16899 Q266.68634,232.16899,267.35822,232.32524 Q268.04572,232.46587,268.63947,232.74712 L268.1551,233.85649 Q267.62384,233.63774,267.0301,233.48149 Q266.43634,233.32524,265.81134,233.32524 Q264.95197,233.32524,264.48322,233.60649 Q264.0301,233.87212,264.0301,234.35649 Q264.0301,234.71587,264.23322,234.96587 Q264.45197,235.20024,264.93634,235.43462 Q265.42072,235.66899,266.24884,235.99712 Q267.06134,236.29399,267.63947,236.62212 Q268.2176,236.93462,268.51447,237.38774 Q268.81134,237.84087,268.81134,238.52837 Z" fill="black"/>
</a>
</g>
</g>
<g class="node" id="node-7">
<title>Gabriel</title>
<g id="a-node-7">
<a title="Gabriel" xlink:title="Gabriel">
<ellipse cx="379.2792" cy="234.69536" fill="white" rx="43.495033" ry="27.207897" stroke="black" stroke-width="1"/>
<path d="M358.61884,234.87212 L362.57196,234.87212 L362.57196,240.46587 Q361.63446,240.77837,360.68134,240.91899 Q359.74384,241.05962,358.55634,241.05962 Q356.7751,241.05962,355.55634,240.35649 Q354.3376,239.63774,353.69696,238.32524 Q353.07196,236.99712,353.07196,235.18462 Q353.07196,233.40337,353.7751,232.09087 Q354.49384,230.77837,355.80634,230.05962 Q357.13446,229.32524,358.99384,229.32524 Q359.9626,229.32524,360.80634,229.49712 Q361.6657,229.66899,362.4001,229.99712 L361.86884,231.24712 Q361.25946,230.96587,360.49384,230.77837 Q359.7282,230.59087,358.9157,230.59087 Q357.55634,230.59087,356.57196,231.15337 Q355.6032,231.70024,355.0876,232.73149 Q354.5876,233.76274,354.5876,235.18462 Q354.5876,236.54399,355.0251,237.60649 Q355.4626,238.65337,356.4001,239.23149 Q357.3532,239.80962,358.88446,239.80962 Q359.63446,239.80962,360.1657,239.73149 Q360.69696,239.65337,361.13446,239.54399 L361.13446,236.15337 L358.61884,236.15337 ZM368.3606,232.18462 Q369.9231,232.18462,370.6731,232.87212 Q371.43872,233.55962,371.43872,235.05962 L371.43872,240.90337 L370.40747,240.90337 L370.14185,239.68462 L370.06372,239.68462 Q369.70435,240.15337,369.31372,240.46587 Q368.9231,240.77837,368.40747,240.91899 Q367.90747,241.05962,367.18872,241.05962 Q366.4231,241.05962,365.7981,240.79399 Q365.18872,240.51274,364.82935,239.95024 Q364.4856,239.38774,364.4856,238.51274 Q364.4856,237.24712,365.4856,236.54399 Q366.50122,235.84087,368.59497,235.77837 L370.0481,235.73149 L370.0481,235.21587 Q370.0481,234.15337,369.57935,233.74712 Q369.12622,233.32524,368.28247,233.32524 Q367.6106,233.32524,367.00122,233.52837 Q366.39185,233.71587,365.8606,233.98149 L365.43872,232.91899 Q365.9856,232.62212,366.75122,232.40337 Q367.53247,232.18462,368.3606,232.18462 ZM368.78247,236.76274 Q367.1731,236.82524,366.5481,237.27837 Q365.93872,237.71587,365.93872,238.52837 Q365.93872,239.26274,366.37622,239.60649 Q366.82935,239.93462,367.51685,239.93462 Q368.59497,239.93462,369.31372,239.34087 Q370.03247,238.73149,370.03247,237.48149 L370.03247,236.71587 ZM375.49286,231.70024 Q375.49286,232.24712,375.4616,232.71587 Q375.44598,233.18462,375.41473,233.46587 L375.49286,233.46587 Q375.86786,232.91899,376.50848,232.55962 Q377.1491,232.18462,378.1491,232.18462 Q379.75848,232.18462,380.7116,233.29399 Q381.68036,234.40337,381.68036,236.62212 Q381.68036,238.09087,381.24286,239.09087 Q380.80536,240.07524,380.00848,240.57524 Q379.2116,241.05962,378.1491,241.05962 Q377.1491,241.05962,376.50848,240.70024 Q375.86786,240.32524,375.49286,239.80962 L375.38348,239.80962 L375.10223,240.90337 L374.0866,240.90337 L374.0866,228.74712 L375.49286,228.74712 ZM377.91473,233.35649 Q376.99286,233.35649,376.4616,233.70024 Q375.94598,234.04399,375.7116,234.76274 Q375.49286,235.46587,375.49286,236.55962 L375.49286,236.63774 Q375.49286,238.21587,376.00848,239.05962 Q376.53973,239.88774,377.94598,239.88774 Q379.10223,239.88774,379.66473,239.04399 Q380.22723,238.20024,380.22723,236.60649 Q380.22723,234.98149,379.66473,234.16899 Q379.10223,233.35649,377.91473,233.35649 ZM387.9266,232.16899 Q388.16098,232.16899,388.44223,232.20024 Q388.72348,232.21587,388.94223,232.26274 L388.75473,233.55962 Q388.5516,233.51274,388.3016,233.48149 Q388.0516,233.45024,387.83286,233.45024 Q387.33286,233.45024,386.87973,233.65337 Q386.44223,233.85649,386.08286,234.24712 Q385.7391,234.62212,385.53598,235.15337 Q385.33286,235.66899,385.33286,236.32524 L385.33286,240.90337 L383.9266,240.90337 L383.9266,232.32524 L385.08286,232.32524 L385.2391,233.88774 L385.3016,233.88774 Q385.58286,233.41899,385.95786,233.02837 Q386.34848,232.63774,386.83286,232.40337 Q387.33286,232.16899,387.9266,232.16899 ZM391.94086,232.32524 L391.94086,240.90337 L390.5346,240.90337 L390.5346,232.32524 ZM391.25336,229.10649 Q391.58148,229.10649,391.81586,229.32524 Q392.06586,229.54399,392.06586,230.01274 Q392.06586,230.45024,391.81586,230.68462 Q391.58148,230.90337,391.25336,230.90337 Q390.9096,230.90337,390.6596,230.68462 Q390.42523,230.45024,390.42523,230.01274 Q390.42523,229.54399,390.6596,229.32524 Q390.9096,229.10649,391.25336,229.10649 ZM397.9751,232.16899 Q399.08447,232.16899,399.86572,232.65337 Q400.6626,233.12212,401.08447,233.99712 Q401.50635,234.87212,401.50635,236.04399 L401.50635,236.88774 L395.64697,236.88774 Q395.67822,238.34087,396.38135,239.10649 Q397.1001,239.85649,398.38135,239.85649 Q399.19385,239.85649,399.81885,239.71587 Q400.45947,239.55962,401.13135,239.27837 L401.13135,240.49712 Q400.4751,240.79399,399.83447,240.91899 Q399.19385,241.05962,398.31885,241.05962 Q397.1001,241.05962,396.1626,240.57524 Q395.2251,240.07524,394.69385,239.09087 Q394.17822,238.10649,394.17822,236.68462 Q394.17822,235.27837,394.64697,234.27837 Q395.13135,233.26274,395.9751,232.71587 Q396.83447,232.16899,397.9751,232.16899 ZM397.95947,233.32524 Q396.94385,233.32524,396.36572,233.98149 Q395.7876,234.62212,395.67822,235.76274 L400.0376,235.76274 Q400.0376,235.02837,399.80322,234.49712 Q399.58447,233.95024,399.13135,233.63774 Q398.67822,233.32524,397.95947,233.32524 ZM405.09283,240.90337 L403.68658,240.90337 L403.68658,228.74712 L405.09283,228.74712 Z" fill="black"/>
</a>
</g>
</g>
</svg>